<?xml version="1.0" encoding="utf-8"?>
<!-- Generator: Adobe Illustrator 21.0.0, SVG Export Plug-In . SVG Version: 6.00 Build 0)  -->
<svg version="1.1" id="Layer_1" xmlns="http://www.w3.org/2000/svg" xmlns:xlink="http://www.w3.org/1999/xlink" x="0px" y="0px"
	 viewBox="0 0 189 202.8" style="enable-background:new 0 0 189 202.8;" xml:space="preserve">
<style type="text/css">
	.st0{opacity:0.82;fill:#A3A0A0;enable-background:new    ;}
</style>
<path class="st0" d="M94.6,9C43.5,9,2,50.5,2,101.6s41.5,92.6,92.6,92.6s92.6-41.5,92.6-92.6S145.8,9,94.6,9z M136.1,140.2
	c0,1.5-1.4,2.9-2.9,2.9H56c-1.5,0-2.9-1.4-2.9-2.9V63c0-1.5,1.4-2.9,2.9-2.9h34.7c1.5,0,2.9,1.4,2.9,2.9s-1.4,2.9-2.9,2.9H58.9v71.4
	h71.4v-31.8c0-1.5,1.4-2.9,2.9-2.9s2.9,1.4,2.9,2.9L136.1,140.2L136.1,140.2z M136.1,82.5c0,1.5-1.4,2.9-2.9,2.9s-2.9-1.4-2.9-2.9
	V70l-31.8,32c-0.6,0.6-1.4,0.8-2.1,0.8c-0.8,0-1.5-0.2-2.1-0.8c-1.2-1.2-1.2-2.9,0-4.1l31.8-31.8h-12.5c-1.5,0-2.9-1.4-2.9-2.9
	s1.4-2.9,2.9-2.9h19.7c0.4,0,0.8,0,1,0.2c0.8,0.4,1.4,0.8,1.5,1.5c0.2,0.4,0.2,0.8,0.2,1L136.1,82.5L136.1,82.5z"/>
</svg>
