<?xml version="1.0" encoding="utf-8"?>
<!-- Generator: Adobe Illustrator 21.0.0, SVG Export Plug-In . SVG Version: 6.00 Build 0)  -->
<svg version="1.1" id="Layer_1" xmlns="http://www.w3.org/2000/svg" xmlns:xlink="http://www.w3.org/1999/xlink" x="0px" y="0px"
	 viewBox="0 0 43.3 43.7" style="enable-background:new 0 0 43.3 43.7;" xml:space="preserve">
<style type="text/css">
	.st0{opacity:0.85;}
	.st1{fill:#C9C9C9;}
</style>
<title>arrow_up [#234]</title>
<desc>Created with Sketch.</desc>
<g class="st0">
	<g transform="translate(-380.000000, -7079.000000)">
		<g transform="translate(56.000000, 160.000000)">
			<path class="st1" d="M328.3,6919.2c-2.4,0-4.3,1.9-4.3,4.3v10.8c0,1.3,0.9,2.2,2.2,2.2s2.2-0.9,2.2-2.2v-5.2
				c0-0.9,1.1-1.5,1.9-0.9l6.5,6.5c0.9,0.9,2.2,0.9,3,0s0.9-2.2,0-3l-6.5-6.5c-0.6-0.6-0.2-1.9,0.9-1.9h5.2c1.3,0,2.2-0.9,2.2-2.2
				s-0.9-2.2-2.2-2.2h-11V6919.2z M367.3,6947.4c0-1.3-0.9-2.2-2.2-2.2c-1.3,0-2.2,0.9-2.2,2.2v5.2c0,0.9-1.1,1.5-1.9,0.9l-6.5-6.5
				c-0.9-0.9-2.2-0.9-3,0c-0.9,0.9-0.9,2.2,0,3l6.5,6.5c0.6,0.6,0.2,1.9-0.9,1.9h-5c-1.3,0-2.2,0.9-2.2,2.2s0.9,2.2,2.2,2.2H363
				c2.4,0,4.3-1.9,4.3-4.3V6947.4L367.3,6947.4z"/>
		</g>
	</g>
</g>
</svg>
